REM MD5 0dd21f6f641bd9b0e538b6e4f31ee9f6
FILE "Dengeki PlayStation D7 (Japan).bin" BINARY
  TRACK 01 MODE2/2352
    INDEX 01 00:00:00
  TRACK 02 AUDIO
    INDEX 00 51:26:47
    INDEX 01 51:28:47
  TRACK 03 AUDIO
    INDEX 00 53:56:63
    INDEX 01 53:58:63
  TRACK 04 AUDIO
    INDEX 00 55:16:41
    INDEX 01 55:18:41
  TRACK 05 AUDIO
    INDEX 00 55:46:74
    INDEX 01 55:48:74
  TRACK 06 AUDIO
    INDEX 00 58:17:67
    INDEX 01 58:19:67
REM LEADOUT 61:49:67
